PathFileType	4	(X/Y/Z)	C:\Users\dbl\Desktop\LZH\BX\Trimmed_bx_y_5_1801.trc
DataRate	CameraRate	NumFrames	NumMarkers	Units	OrigDataRate	OrigDataStartFrame	OrigNumFrames
50.00	50.00	       8	43	mm	50.00	289	       330
Frame#	Time	Top.Head			R.Acromium			L.Acromium			Sternum			R.ASIS			L.ASIS			V.Sacral			R.Thigh.Upper			R.Thigh.Front			R.Thigh.Rear			R.Knee.Lat			R.Knee.Med			R.Shank.Upper			R.Shank.Front			R.Shank.Rear			R.Ankle.Lat			R.Midfoot.Lat			R.Toe.Lat			R.Toe.Tip			R.Toe.Med			R.Ankle.Med			R.Midfoot.Sup			R.Heel			L.Thigh.Upper			L.Thigh.Front			L.Thigh.Rear			L.Knee.Lat			L.Knee.Med			L.Shank.Upper			L.Shank.Front			L.Shank.Rear			L.Ankle.Lat			L.Midfoot.Lat			L.Toe.Lat			L.Toe.Tip			L.Toe.Med			L.Ankle.Med			L.Midfoot.Sup			L.Heel			origin1 front left			origin2 front right			origin 3 back right			origin 4 back leftt			
		X1	Y1	Z1	X2	Y2	Z2	X3	Y3	Z3	X4	Y4	Z4	X5	Y5	Z5	X6	Y6	Z6	X7	Y7	Z7	X8	Y8	Z8	X9	Y9	Z9	X10	Y10	Z10	X11	Y11	Z11	X12	Y12	Z12	X13	Y13	Z13	X14	Y14	Z14	X15	Y15	Z15	X16	Y16	Z16	X17	Y17	Z17	X18	Y18	Z18	X19	Y19	Z19	X20	Y20	Z20	X21	Y21	Z21	X22	Y22	Z22	X23	Y23	Z23	X24	Y24	Z24	X25	Y25	Z25	X26	Y26	Z26	X27	Y27	Z27	X28	Y28	Z28	X29	Y29	Z29	X30	Y30	Z30	X31	Y31	Z31	X32	Y32	Z32	X33	Y33	Z33	X34	Y34	Z34	X35	Y35	Z35	X36	Y36	Z36	X37	Y37	Z37	X38	Y38	Z38	X39	Y39	Z39	X40	Y40	Z40	X41	Y41	Z41	X42	Y42	Z42	X43	Y43	Z43	

289	5.760	-727.46448	251.78348	1833.75696	-673.71136	55.03265	1527.08569	-641.45087	445.00128	1541.38782	-563.07910	254.78259	1398.65234	-562.27222	116.03477	1090.13196	-571.43274	395.84558	1080.29675	-773.53369	256.10489	1010.50763	-595.07922	82.35508	897.18060	-544.74609	141.53947	853.53052	-641.34589	84.93975	753.49432	-652.90662	119.50542	607.49567	-630.30249	230.34186	570.50391	-687.58453	123.99240	543.57086	-600.68951	169.90556	555.57196	-726.66528	130.66629	477.07114	-688.51837	147.55139	213.70824	-616.46185	79.68917	164.78917	-570.22382	55.00043	162.51788	-491.44138	95.87421	161.13626	-531.20953	146.96593	167.12161	-630.84698	217.95868	220.51555	-591.89502	189.36491	171.67679	-713.95184	217.26883	170.79301	-595.42755	436.27725	882.40991	-532.40234	361.90192	845.17456	-617.68945	432.20792	754.90131	-647.25989	409.53754	630.41949	-614.21619	304.89526	583.86981	-653.72974	404.25946	567.32269	-601.79315	362.54526	545.92712	-706.33716	410.03604	516.43262	-679.25134	415.55890	214.93892	-583.32043	468.87994	165.04005	-543.29620	477.78482	159.39499	-480.82526	430.04376	166.41566	-524.69330	387.92078	177.90997	-642.29651	327.07385	207.00996	-593.88062	348.58356	168.86749	-732.23956	345.06613	164.14983	-443.84158	449.03131	147.27351	-450.27792	75.80357	143.80923	-806.25476	82.62107	142.60109	-799.59503	457.76547	145.18169	
290	5.780	-727.67035	252.01143	1833.88538	-673.93451	55.15643	1527.23718	-641.66614	445.30414	1541.36951	-563.38751	255.22693	1398.75317	-562.14874	116.18633	1089.63464	-571.68457	395.92075	1080.24072	-773.72858	256.16043	1010.49377	-595.10620	82.58087	897.19635	-544.89545	141.80103	853.52240	-641.32770	85.06794	753.55499	-652.90985	119.61729	607.43445	-630.37866	230.31595	570.51636	-687.63464	124.04211	543.54480	-600.72693	169.97034	555.58722	-726.70386	130.66913	477.02853	-688.50500	147.53969	213.69028	-616.44415	79.69511	164.78745	-570.24347	54.97850	162.46835	-491.37878	95.89176	161.10960	-531.18463	146.98198	167.10135	-630.91443	217.95010	220.54062	-591.51398	189.64499	171.76346	-713.91785	217.25592	170.77803	-595.71069	436.38290	882.25848	-532.42114	362.07657	845.29651	-617.78314	432.30582	754.82782	-647.44330	409.53278	630.40302	-614.28778	305.05740	583.87549	-653.75000	404.27313	567.32086	-601.80438	362.60156	545.91895	-706.45917	410.10968	516.45026	-679.25720	415.53702	214.85977	-583.32294	468.87488	164.99745	-543.29742	477.76474	159.39381	-480.79883	430.06366	166.43523	-524.59357	388.01938	178.02409	-642.23004	327.02042	207.11859	-593.92737	348.36508	169.22935	-732.26190	345.01019	164.13651	-443.84027	449.04355	147.26260	-450.27893	75.78222	143.82040	-806.26465	82.62702	142.62099	-799.56873	457.75995	145.20549	
291	5.800	-727.94049	252.27109	1833.94189	-674.14716	55.27161	1527.35437	-641.85553	445.53992	1541.30066	-563.68433	255.51413	1398.82056	-562.08887	116.35388	1089.09119	-571.93225	396.05194	1080.25244	-773.91302	256.24756	1010.45648	-595.14087	82.80450	897.23114	-545.05969	141.97366	853.51392	-641.33374	85.17708	753.59692	-652.86078	119.75414	607.37885	-630.40295	230.32098	570.54303	-687.65332	124.09931	543.53314	-600.72058	170.02335	555.61804	-726.72308	130.68001	477.00049	-688.45251	147.52235	213.68456	-616.40704	79.71404	164.80119	-570.25232	54.97590	162.41727	-491.31540	95.88949	161.06424	-531.15149	146.99367	167.07291	-630.96985	217.97820	220.55768	-591.17590	189.89363	171.78482	-713.85107	217.27574	170.78032	-596.00250	436.45615	882.04315	-532.45404	362.22217	845.37988	-617.93921	432.40594	754.68921	-647.63348	409.50754	630.35956	-614.45868	305.24146	583.83899	-653.74457	404.26147	567.31940	-601.82239	362.64539	545.93408	-706.51611	410.10190	516.48535	-679.27118	415.54605	214.82138	-583.31055	468.90240	164.94197	-543.29077	477.73727	159.40369	-480.77649	430.09375	166.45862	-524.52747	388.12305	178.12672	-642.24371	326.99930	207.09871	-593.96277	348.17654	169.53265	-732.29340	344.94064	164.08456	-443.82965	449.04248	147.26042	-450.28561	75.77036	143.83913	-806.27838	82.65152	142.62216	-799.52826	457.82648	145.16510	
292	5.820	-728.25745	252.54414	1833.93408	-674.36957	55.42970	1527.48218	-642.03986	445.74500	1541.18726	-563.88940	255.61026	1398.89209	-562.09143	116.53690	1088.50476	-572.14838	396.21436	1080.29309	-774.09656	256.37708	1010.38800	-595.23938	83.02746	897.25732	-545.23645	142.04774	853.50677	-641.37402	85.27503	753.61249	-652.75977	119.89534	607.35443	-630.36920	230.38995	570.52484	-687.63550	124.14502	543.53796	-600.66711	170.05267	555.63831	-726.72168	130.69952	476.98380	-688.31610	147.50375	213.70447	-616.36395	79.73904	164.82965	-570.26733	54.98466	162.35393	-491.26962	95.87441	161.00598	-531.11426	147.00545	167.04260	-630.97180	218.00110	220.56268	-591.11121	189.91547	171.68454	-713.79822	217.30031	170.80067	-596.26093	436.51627	881.84271	-532.50702	362.33905	845.44958	-618.15576	432.51935	754.50317	-647.79321	409.49390	630.32123	-614.73578	305.42700	583.75873	-653.73334	404.24326	567.28882	-601.86670	362.67612	545.97491	-706.48090	410.05789	516.52094	-679.29016	415.58163	214.84517	-583.29333	468.96234	164.90523	-543.27521	477.72766	159.41296	-480.77182	430.10046	166.46428	-524.50793	388.19391	178.17378	-642.32281	327.04431	206.93945	-593.97168	348.08743	169.66881	-732.31348	344.89145	164.01572	-443.81754	449.02750	147.26903	-450.29309	75.76490	143.85666	-806.30127	82.66692	142.62292	-799.51910	457.88333	145.13879	
293	5.840	-728.55011	252.78282	1833.90076	-674.61536	55.62871	1527.63330	-642.21991	445.93762	1541.04248	-563.98737	255.56320	1398.97510	-562.15521	116.73484	1087.87830	-572.29010	396.35983	1080.31055	-774.28339	256.54105	1010.27350	-595.44037	83.25555	897.24579	-545.41162	142.05856	853.50568	-641.43616	85.35938	753.60211	-652.65900	120.02953	607.35284	-630.31396	230.54321	570.42218	-687.59088	124.17604	543.55182	-600.58832	170.05588	555.62537	-726.71259	130.73360	476.96747	-688.07922	147.49429	213.75546	-616.33051	79.76097	164.86212	-570.28107	54.99126	162.27748	-491.24042	95.85968	160.95198	-531.07227	147.00789	167.02386	-630.90161	217.99158	220.56140	-591.40216	189.64134	171.43744	-713.78186	217.30562	170.82442	-596.44067	436.55899	881.71661	-532.56702	362.41986	845.50818	-618.37701	432.60706	754.30518	-647.94415	409.52264	630.32690	-615.10669	305.59811	583.64594	-653.75885	404.20956	567.21643	-601.99609	362.69528	546.01428	-706.42023	410.05075	516.54614	-679.30560	415.62164	214.90660	-583.27887	469.03320	164.89667	-543.25720	477.75323	159.41011	-480.78412	430.06839	166.43324	-524.50739	388.22025	178.17693	-642.39478	327.13937	206.74916	-593.95831	348.14182	169.59245	-732.29437	344.91467	163.99269	-443.80975	449.00488	147.28032	-450.29681	75.76704	143.86534	-806.32471	82.65446	142.63091	-799.55774	457.85831	145.18724	
294	5.860	-728.76282	252.95187	1833.87585	-674.90485	55.88676	1527.75439	-642.38898	446.10486	1540.88782	-564.03217	255.46768	1399.03540	-562.27899	116.94714	1087.21484	-572.36493	396.48819	1080.27075	-774.47668	256.73019	1010.13489	-595.74005	83.45655	897.21167	-545.56293	142.04836	853.51416	-641.52356	85.43206	753.56677	-652.59955	120.13436	607.36102	-630.27069	230.75287	570.26556	-687.54419	124.20814	543.55884	-600.51843	170.04367	555.58582	-726.71210	130.78780	476.94547	-687.80481	147.50034	213.81870	-616.30988	79.77624	164.88438	-570.25104	54.99965	162.24158	-491.21533	95.85172	160.92113	-531.02936	146.99403	167.02513	-630.79138	217.97165	220.55734	-591.82635	189.25349	171.13210	-713.78644	217.30881	170.84486	-596.53613	436.57065	881.66766	-532.61316	362.44763	845.53979	-618.55402	432.63828	754.13196	-648.15125	409.59119	630.38007	-615.51392	305.73535	583.53931	-653.88885	404.13144	567.11908	-602.28241	362.69885	546.01465	-706.45892	410.12579	516.54974	-679.31482	415.65622	214.97926	-583.28003	469.08606	164.90494	-543.24023	477.80740	159.40189	-480.79706	430.01620	166.37160	-524.48956	388.20865	178.17010	-642.41583	327.22540	206.65199	-593.93201	348.34268	169.31537	-732.23865	345.02603	164.07224	-443.80435	448.98901	147.28763	-450.29510	75.77771	143.86273	-806.33173	82.62949	142.63284	-799.61279	457.78442	145.28159	
295	5.880	-728.92157	253.08119	1833.87085	-675.24847	56.23679	1527.79272	-642.55603	446.21155	1540.73901	-564.10089	255.41093	1399.03723	-562.46167	117.17327	1086.51770	-572.43048	396.65167	1080.17078	-774.67810	256.92935	1010.02240	-596.09161	83.57571	897.19415	-545.68347	142.04016	853.52917	-641.67316	85.49561	753.51764	-652.58044	120.19048	607.36902	-630.23602	230.93227	570.14233	-687.51721	124.25858	543.54132	-600.47894	170.02882	555.54535	-726.72607	130.85944	476.92242	-687.60382	147.51530	213.86348	-616.29578	79.78617	164.88277	-570.15747	55.01795	162.30696	-491.19250	95.84811	160.91449	-531.00208	146.97612	167.03625	-630.69745	217.96774	220.54686	-592.10425	189.00308	170.90829	-713.79395	217.33031	170.86494	-596.59393	436.54822	881.66095	-532.66382	362.42358	845.53302	-618.67828	432.61908	754.02081	-648.45117	409.66632	630.43463	-615.88593	305.83032	583.47644	-654.17188	404.01071	567.03162	-602.72809	362.68054	545.96765	-706.67584	410.27567	516.51331	-679.33148	415.67938	215.03296	-583.30103	469.10239	164.90829	-543.23267	477.86572	159.40211	-480.80035	429.97269	166.30910	-524.44916	388.17783	178.16949	-642.40546	327.25012	206.68326	-593.89795	348.60809	168.94284	-732.18091	345.17407	164.22533	-443.79443	448.99036	147.29288	-450.28915	75.79313	143.85107	-806.30920	82.61645	142.62787	-799.64667	457.73007	145.36148	
296	5.900	-729.09821	253.23940	1833.87732	-675.61932	56.63000	1527.76807	-642.74817	446.22702	1540.58740	-564.24567	255.43069	1398.97656	-562.70203	117.41267	1085.78979	-572.54541	396.88943	1080.04919	-774.89087	257.09195	1009.95673	-596.44543	83.58716	897.20691	-545.80157	142.04593	853.54535	-641.91870	85.54312	753.47217	-652.58582	120.19649	607.37042	-630.19635	231.01184	570.10132	-687.51337	124.31903	543.49713	-600.47284	170.01508	555.51410	-726.74652	130.92363	476.91382	-687.54132	147.52499	213.87392	-616.28131	79.79453	164.85420	-570.04901	55.03898	162.44598	-491.17859	95.84534	160.91743	-531.00476	146.97163	167.04222	-630.64746	217.97403	220.52878	-592.17767	188.96461	170.82236	-713.80042	217.36429	170.89127	-596.67749	436.50580	881.67175	-532.80157	362.37152	845.48102	-618.78290	432.58649	753.99646	-648.81116	409.70743	630.42737	-616.19244	305.88516	583.45782	-654.57642	403.90564	566.98529	-603.22791	362.64624	545.90021	-707.04285	410.45166	516.42908	-679.36346	415.67737	215.03262	-583.32642	469.07642	164.88690	-543.24152	477.90073	159.40826	-480.80084	429.94910	166.27243	-524.41968	388.14670	178.16280	-642.40265	327.21088	206.78001	-593.86292	348.80225	168.64520	-732.15228	345.27441	164.34740	-443.77646	449.00571	147.30000	-450.28320	75.80556	143.83736	-806.26416	82.62140	142.63187	-799.64984	457.71194	145.39836	
